<mxfile host="app.diagrams.net" agent="Mozilla/5.0 (X11; Ubuntu; Linux x86_64; rv:137.0) Gecko/20100101 Firefox/137.0" version="26.2.8">
  <diagram name="Page-1" id="42789a77-a242-8287-6e28-9cd8cfd52e62">
    <mxGraphModel dx="739" dy="413" grid="1" gridSize="10" guides="1" tooltips="1" connect="1" arrows="1" fold="1" page="1" pageScale="1" pageWidth="1169" pageHeight="827" background="none" math="0" shadow="0">
      <root>
        <mxCell id="0" />
        <mxCell id="1" parent="0" />
        <mxCell id="1ea317790d2ca983-21" value="builds" style="edgeStyle=none;rounded=1;html=1;labelBackgroundColor=none;startArrow=none;startFill=0;startSize=5;endArrow=classicThin;endFill=1;endSize=5;jettySize=auto;orthogonalLoop=1;strokeColor=#B3B3B3;strokeWidth=1;fontFamily=Verdana;fontSize=12;labelPosition=center;verticalLabelPosition=top;align=center;verticalAlign=bottom;" parent="1" source="1ea317790d2ca983-2" target="1ea317790d2ca983-7" edge="1">
          <mxGeometry relative="1" as="geometry">
            <mxPoint as="offset" />
          </mxGeometry>
        </mxCell>
        <mxCell id="1ea317790d2ca983-2" value="&lt;div&gt;&lt;font style=&quot;font-size: 11px;&quot;&gt;Desktop main+preload&lt;/font&gt;&lt;/div&gt;" style="ellipse;whiteSpace=wrap;html=1;rounded=0;shadow=1;comic=0;labelBackgroundColor=none;strokeWidth=1;fontFamily=Verdana;fontSize=12;align=center;" parent="1" vertex="1">
          <mxGeometry x="200" y="260" width="100" height="60" as="geometry" />
        </mxCell>
        <mxCell id="1ea317790d2ca983-23" value="wraps" style="edgeStyle=none;rounded=1;html=1;labelBackgroundColor=none;startArrow=none;startFill=0;startSize=5;endArrow=classicThin;endFill=1;endSize=5;jettySize=auto;orthogonalLoop=1;strokeColor=#B3B3B3;strokeWidth=1;fontFamily=Verdana;fontSize=12;labelPosition=right;verticalLabelPosition=middle;align=left;verticalAlign=middle;" parent="1" source="1ea317790d2ca983-6" target="1ea317790d2ca983-8" edge="1">
          <mxGeometry relative="1" as="geometry" />
        </mxCell>
        <mxCell id="1ea317790d2ca983-6" value="&lt;font style=&quot;font-size: 11px;&quot;&gt;Web App&lt;/font&gt;" style="ellipse;whiteSpace=wrap;html=1;rounded=0;shadow=1;comic=0;labelBackgroundColor=none;strokeWidth=1;fontFamily=Verdana;fontSize=12;align=center;" parent="1" vertex="1">
          <mxGeometry x="540" y="315" width="100" height="60" as="geometry" />
        </mxCell>
        <mxCell id="1ea317790d2ca983-24" value="wraps" style="edgeStyle=none;rounded=1;html=1;labelBackgroundColor=none;startArrow=none;startFill=0;startSize=5;endArrow=classicThin;endFill=1;endSize=5;jettySize=auto;orthogonalLoop=1;strokeColor=#B3B3B3;strokeWidth=1;fontFamily=Verdana;fontSize=12;labelPosition=right;verticalLabelPosition=middle;align=left;verticalAlign=middle;" parent="1" source="1ea317790d2ca983-7" target="1ea317790d2ca983-8" edge="1">
          <mxGeometry relative="1" as="geometry" />
        </mxCell>
        <mxCell id="1ea317790d2ca983-7" value="&lt;div&gt;&lt;font style=&quot;font-size: 11px;&quot;&gt;Desktop&lt;br&gt;UI (React)&lt;/font&gt;&lt;/div&gt;" style="ellipse;whiteSpace=wrap;html=1;rounded=0;shadow=1;comic=0;labelBackgroundColor=none;strokeWidth=1;fontFamily=Verdana;fontSize=12;align=center;" parent="1" vertex="1">
          <mxGeometry x="360" y="315" width="100" height="60" as="geometry" />
        </mxCell>
        <mxCell id="1ea317790d2ca983-8" value="&lt;font style=&quot;font-size: 11px;&quot;&gt;Common&lt;br&gt;React app&lt;/font&gt;" style="ellipse;whiteSpace=wrap;html=1;rounded=0;shadow=1;comic=0;labelBackgroundColor=none;strokeWidth=1;fontFamily=Verdana;fontSize=12;align=center;" parent="1" vertex="1">
          <mxGeometry x="590" y="490" width="100" height="60" as="geometry" />
        </mxCell>
        <mxCell id="cm2DGAu5Efj9Ry1JdW_r-2" value="" style="ellipse;whiteSpace=wrap;html=1;rounded=0;shadow=1;comic=0;labelBackgroundColor=none;strokeWidth=1;fontFamily=Verdana;fontSize=12;align=center;" vertex="1" parent="1">
          <mxGeometry x="340" y="490" width="100" height="60" as="geometry" />
        </mxCell>
        <mxCell id="cm2DGAu5Efj9Ry1JdW_r-4" value="" style="edgeStyle=none;rounded=1;html=1;labelBackgroundColor=none;startArrow=none;startFill=0;startSize=5;endArrow=classicThin;endFill=1;endSize=5;jettySize=auto;orthogonalLoop=1;strokeColor=#B3B3B3;strokeWidth=1;fontFamily=Verdana;fontSize=12;" edge="1" parent="1" source="1ea317790d2ca983-7" target="cm2DGAu5Efj9Ry1JdW_r-2">
          <mxGeometry relative="1" as="geometry">
            <mxPoint x="360" y="400" as="sourcePoint" />
            <mxPoint x="503" y="521" as="targetPoint" />
          </mxGeometry>
        </mxCell>
        <mxCell id="cm2DGAu5Efj9Ry1JdW_r-8" value="" style="edgeStyle=none;rounded=1;html=1;labelBackgroundColor=none;startArrow=none;startFill=0;startSize=5;endArrow=classicThin;endFill=1;endSize=5;jettySize=auto;orthogonalLoop=1;strokeColor=#B3B3B3;strokeWidth=1;fontFamily=Verdana;fontSize=12;" edge="1" parent="1" source="1ea317790d2ca983-8" target="cm2DGAu5Efj9Ry1JdW_r-2">
          <mxGeometry x="0.0158" y="1" relative="1" as="geometry">
            <mxPoint x="561" y="563" as="sourcePoint" />
            <mxPoint x="660" y="590" as="targetPoint" />
            <mxPoint as="offset" />
          </mxGeometry>
        </mxCell>
        <mxCell id="cm2DGAu5Efj9Ry1JdW_r-10" value="" style="edgeStyle=none;rounded=1;html=1;labelBackgroundColor=none;startArrow=none;startFill=0;startSize=5;endArrow=classicThin;endFill=1;endSize=5;jettySize=auto;orthogonalLoop=1;strokeColor=#B3B3B3;strokeWidth=1;fontFamily=Verdana;fontSize=12;exitX=0;exitY=1;exitDx=0;exitDy=0;" edge="1" parent="1" source="1ea317790d2ca983-6" target="cm2DGAu5Efj9Ry1JdW_r-2">
          <mxGeometry relative="1" as="geometry">
            <mxPoint x="578" y="384" as="sourcePoint" />
            <mxPoint x="464" y="611" as="targetPoint" />
          </mxGeometry>
        </mxCell>
        <mxCell id="cm2DGAu5Efj9Ry1JdW_r-12" value="&lt;div&gt;&lt;font style=&quot;font-size: 11px;&quot;&gt;Component library&lt;/font&gt;&lt;/div&gt;" style="ellipse;whiteSpace=wrap;html=1;rounded=0;shadow=1;comic=0;labelBackgroundColor=none;strokeWidth=1;fontFamily=Verdana;fontSize=12;align=center;" vertex="1" parent="1">
          <mxGeometry x="370" y="530" width="100" height="60" as="geometry" />
        </mxCell>
        <mxCell id="cm2DGAu5Efj9Ry1JdW_r-13" value="&lt;font style=&quot;font-size: 11px;&quot;&gt;Types&lt;/font&gt;" style="ellipse;whiteSpace=wrap;html=1;rounded=0;shadow=1;comic=0;labelBackgroundColor=none;strokeWidth=1;fontFamily=Verdana;fontSize=12;align=center;" vertex="1" parent="1">
          <mxGeometry x="270" y="490" width="100" height="60" as="geometry" />
        </mxCell>
      </root>
    </mxGraphModel>
  </diagram>
</mxfile>
